<svg width="21" height="20" viewBox="0 0 21 20" fill="none" xmlns="http://www.w3.org/2000/svg">
<path d="M9.875 15C10.9105 15 11.75 15.8398 11.75 16.875C11.75 17.9102 10.9105 18.75 9.875 18.75C8.83945 18.75 8 17.9102 8 16.875C8 15.8398 8.83945 15 9.875 15ZM9.875 8.75C10.9105 8.75 11.75 9.58984 11.75 10.625C11.75 11.6602 10.9105 12.5 9.875 12.5C8.83945 12.5 8 11.6602 8 10.625C8 9.58984 8.83945 8.75 9.875 8.75ZM9.875 6.25C8.83945 6.25 8 5.41016 8 4.375C8 3.33945 8.83945 2.5 9.875 2.5C10.9105 2.5 11.75 3.33945 11.75 4.375C11.75 5.41016 10.9105 6.25 9.875 6.25Z" fill="#6B7280"/>
</svg>
