<svg width="20" height="20" viewBox="0 0 20 20" fill="none" xmlns="http://www.w3.org/2000/svg">
<path d="M10.8327 18.3332H4.16602C2.49935 18.3332 1.66602 17.4998 1.66602 15.8332V9.1665C1.66602 7.49984 2.49935 6.6665 4.16602 6.6665H8.33268V15.8332C8.33268 17.4998 9.16601 18.3332 10.8327 18.3332Z" stroke="#292D32" stroke-width="1.5" stroke-miterlimit="10" stroke-linecap="round" stroke-linejoin="round"/>
<path d="M8.42434 3.3335C8.35767 3.5835 8.33268 3.8585 8.33268 4.16683V6.66683H4.16602V5.00016C4.16602 4.0835 4.91602 3.3335 5.83268 3.3335H8.42434Z" stroke="#292D32" stroke-width="1.5" stroke-miterlimit="10" stroke-linecap="round" stroke-linejoin="round"/>
<path d="M11.666 6.6665V10.8332" stroke="#292D32" stroke-width="1.5" stroke-miterlimit="10" stroke-linecap="round" stroke-linejoin="round"/>
<path d="M15 6.6665V10.8332" stroke="#292D32" stroke-width="1.5" stroke-miterlimit="10" stroke-linecap="round" stroke-linejoin="round"/>
<path d="M14.166 14.1665H12.4993C12.041 14.1665 11.666 14.5415 11.666 14.9998V18.3332H14.9993V14.9998C14.9993 14.5415 14.6243 14.1665 14.166 14.1665Z" stroke="#292D32" stroke-width="1.5" stroke-miterlimit="10" stroke-linecap="round" stroke-linejoin="round"/>
<path d="M5 10.8335V14.1668" stroke="#292D32" stroke-width="1.5" stroke-miterlimit="10" stroke-linecap="round" stroke-linejoin="round"/>
<path d="M8.33398 15.8332V4.1665C8.33398 2.49984 9.16732 1.6665 10.834 1.6665H15.834C17.5007 1.6665 18.334 2.49984 18.334 4.1665V15.8332C18.334 17.4998 17.5007 18.3332 15.834 18.3332H10.834C9.16732 18.3332 8.33398 17.4998 8.33398 15.8332Z" stroke="#292D32" stroke-width="1.5" stroke-miterlimit="10" stroke-linecap="round" stroke-linejoin="round"/>
</svg>
