<svg width="20" height="20" viewBox="0 0 20 20" fill="none" xmlns="http://www.w3.org/2000/svg">
<path d="M18.3327 9.37484H16.6327C16.3327 6.19984 13.7993 3.65817 10.6243 3.3665V1.6665C10.6243 1.32484 10.341 1.0415 9.99935 1.0415C9.65768 1.0415 9.37435 1.32484 9.37435 1.6665V3.3665C6.19935 3.6665 3.65768 6.19984 3.36602 9.37484H1.66602C1.32435 9.37484 1.04102 9.65817 1.04102 9.99984C1.04102 10.3415 1.32435 10.6248 1.66602 10.6248H3.36602C3.66602 13.7998 6.19935 16.3415 9.37435 16.6332V18.3332C9.37435 18.6748 9.65768 18.9582 9.99935 18.9582C10.341 18.9582 10.6243 18.6748 10.6243 18.3332V16.6332C13.7993 16.3332 16.341 13.7998 16.6327 10.6248H18.3327C18.6743 10.6248 18.9577 10.3415 18.9577 9.99984C18.9577 9.65817 18.6743 9.37484 18.3327 9.37484ZM9.99935 12.5998C8.56602 12.5998 7.39935 11.4332 7.39935 9.99984C7.39935 8.5665 8.56602 7.39984 9.99935 7.39984C11.4327 7.39984 12.5993 8.5665 12.5993 9.99984C12.5993 11.4332 11.4327 12.5998 9.99935 12.5998Z" fill="#6D6D6D"/>
</svg>
