<svg width="20" height="20" viewBox="0 0 20 20" fill="none" xmlns="http://www.w3.org/2000/svg">
<path d="M17.9173 9.08317V3.4165C17.9173 2.1665 17.384 1.6665 16.059 1.6665H12.6923C11.3673 1.6665 10.834 2.1665 10.834 3.4165V9.08317C10.834 10.3332 11.3673 10.8332 12.6923 10.8332H16.059C17.384 10.8332 17.9173 10.3332 17.9173 9.08317Z" fill="#5A5A5A"/>
<path d="M9.16732 10.9165V16.5832C9.16732 17.8332 8.63399 18.3332 7.30899 18.3332H3.94232C2.61732 18.3332 2.08398 17.8332 2.08398 16.5832V10.9165C2.08398 9.6665 2.61732 9.1665 3.94232 9.1665H7.30899C8.63399 9.1665 9.16732 9.6665 9.16732 10.9165Z" fill="#5A5A5A"/>
<path d="M17.9173 16.5833V14.25C17.9173 13 17.384 12.5 16.059 12.5H12.6923C11.3673 12.5 10.834 13 10.834 14.25V16.5833C10.834 17.8333 11.3673 18.3333 12.6923 18.3333H16.059C17.384 18.3333 17.9173 17.8333 17.9173 16.5833Z" fill="#5A5A5A"/>
<path d="M9.16732 5.74984V3.4165C9.16732 2.1665 8.63399 1.6665 7.30899 1.6665H3.94232C2.61732 1.6665 2.08398 2.1665 2.08398 3.4165V5.74984C2.08398 6.99984 2.61732 7.49984 3.94232 7.49984H7.30899C8.63399 7.49984 9.16732 6.99984 9.16732 5.74984Z" fill="#5A5A5A"/>
</svg>
